<?xml version="1.0" standalone="no"?>
<!DOCTYPE svg PUBLIC "-//W3C//DTD SVG 20010904//EN"
 "http://www.w3.org/TR/2001/REC-SVG-20010904/DTD/svg10.dtd">
<svg version="1.0" xmlns="http://www.w3.org/2000/svg"
 width="1285.000000pt" height="1285.000000pt" viewBox="0 0 1285.000000 1285.000000"
 preserveAspectRatio="xMidYMid meet">
<metadata>
Created by potrace 1.11, written by Peter Selinger 2001-2013
</metadata>
<g transform="translate(0.000000,1285.000000) scale(0.100000,-0.100000)"
fill="#000000" stroke="none">
<path d="M6039 12551 c23 -15 -21 -22 -229 -40 -119 -11 -165 -18 -285 -45
-38 -9 -92 -16 -120 -17 -88 -1 -279 -37 -396 -74 -25 -8 -66 -17 -90 -20 -24
-3 -66 -12 -93 -20 -27 -8 -64 -15 -81 -15 -18 0 -47 -7 -65 -16 -18 -10 -46
-19 -62 -20 -32 -4 -107 -28 -135 -43 -10 -6 -49 -20 -88 -31 -38 -12 -77 -24
-85 -27 -8 -4 -17 -7 -20 -8 -28 -7 -87 -29 -96 -36 -6 -5 -13 -7 -16 -4 -2 2
-40 -14 -84 -36 -149 -78 -193 -99 -203 -99 -6 0 -11 -4 -11 -10 0 -5 -7 -7
-15 -4 -8 4 -15 1 -15 -6 0 -6 -4 -9 -9 -6 -13 9 -72 -24 -65 -36 4 -7 0 -7
-13 0 -14 8 -25 6 -43 -9 -14 -10 -31 -19 -37 -19 -7 0 -13 -4 -13 -8 0 -12
-98 -58 -155 -72 -27 -7 -59 -21 -71 -31 -11 -11 -23 -19 -27 -19 -6 0 -150
-99 -174 -119 -7 -6 -16 -11 -20 -11 -12 0 -127 -72 -143 -90 -8 -10 -25 -20
-37 -24 -13 -4 -23 -15 -23 -23 0 -9 -3 -13 -6 -10 -4 3 -18 -3 -32 -13 -13
-11 -34 -20 -46 -21 -11 0 -15 -3 -8 -6 17 -7 5 -23 -19 -23 -10 0 -19 -4 -19
-10 0 -5 -12 -10 -26 -10 -14 0 -23 -4 -19 -10 3 -5 1 -10 -5 -10 -6 0 -23
-12 -37 -27 -15 -16 -23 -22 -19 -15 4 6 3 12 -3 12 -5 0 -20 -17 -33 -38 -13
-22 -29 -37 -36 -34 -7 2 -23 -7 -36 -20 -42 -42 -118 -103 -130 -103 -11 0
-40 -21 -160 -118 -123 -100 -187 -160 -246 -232 -32 -38 -78 -92 -104 -120
-25 -27 -46 -53 -46 -57 0 -3 -30 -37 -68 -75 -107 -108 -212 -233 -212 -252
0 -6 -4 -11 -9 -11 -4 0 -20 -18 -35 -40 -15 -23 -50 -65 -79 -95 -64 -66 -84
-89 -121 -140 -16 -22 -32 -42 -36 -45 -4 -3 -13 -15 -19 -28 -13 -25 -34 -53
-63 -84 -10 -10 -18 -20 -18 -21 0 -2 -18 -23 -40 -47 -22 -24 -40 -48 -40
-54 0 -6 7 -2 15 8 8 11 15 15 15 10 0 -6 -16 -24 -35 -41 -19 -17 -35 -35
-35 -40 0 -5 -12 -20 -26 -34 -25 -22 -104 -134 -104 -146 0 -3 -9 -18 -21
-35 -12 -16 -19 -32 -16 -35 9 -8 -19 -33 -37 -33 -9 0 -16 -7 -16 -15 0 -8
-5 -15 -11 -15 -5 0 -7 5 -4 10 3 6 1 10 -5 10 -7 0 -9 -8 -5 -19 3 -11 1 -22
-5 -26 -6 -3 -7 -11 -4 -17 4 -6 2 -8 -3 -5 -15 9 -37 -19 -29 -38 3 -9 0 -15
-9 -15 -14 0 -19 -12 -16 -32 0 -5 -4 -8 -10 -8 -5 0 -7 -5 -4 -10 3 -6 -1
-13 -10 -16 -9 -4 -14 -13 -11 -20 3 -8 0 -13 -6 -11 -7 1 -12 -2 -13 -8 0 -5
-4 -16 -8 -22 -6 -9 -3 -11 10 -7 17 5 17 5 0 -9 -9 -8 -17 -20 -17 -26 0 -7
-4 -10 -9 -7 -5 3 -14 -17 -21 -44 -7 -28 -16 -50 -20 -50 -4 0 -11 -7 -14
-16 -4 -12 -2 -15 9 -11 8 4 17 2 20 -3 4 -6 -4 -10 -16 -10 -17 0 -19 -3 -10
-14 9 -11 8 -17 -2 -28 -28 -28 -96 -196 -102 -250 -1 -10 -4 -21 -8 -24 -4
-4 -7 -18 -7 -32 0 -14 -19 -64 -41 -111 -111 -232 -129 -270 -148 -318 -11
-29 -22 -72 -24 -96 -2 -24 -7 -48 -10 -54 -3 -5 -8 -21 -11 -35 -2 -15 -14
-47 -25 -73 -11 -25 -22 -69 -23 -96 -2 -27 -6 -49 -9 -49 -4 0 -9 -13 -11
-30 -3 -16 -1 -30 4 -30 5 0 2 -10 -7 -23 -8 -12 -16 -43 -17 -69 -2 -25 -6
-44 -11 -41 -4 2 -7 3 -7 1 0 -2 -3 -57 -6 -123 -3 -66 -9 -140 -14 -165 -8
-45 -6 -113 5 -130 3 -4 0 -14 -7 -22 -8 -8 -13 -42 -13 -90 0 -43 -4 -79 -10
-81 -6 -3 -6 -15 2 -35 6 -18 8 -32 4 -32 -4 0 -8 -17 -9 -37 -1 -28 1 -34 8
-23 8 13 10 12 10 -2 0 -10 -4 -18 -8 -18 -5 0 -9 -80 -9 -177 -1 -98 -4 -252
-7 -343 -3 -91 -7 -273 -9 -405 -4 -248 2 -307 48 -475 8 -30 15 -64 15 -75 0
-11 9 -26 21 -33 16 -10 18 -16 9 -27 -8 -10 -6 -21 9 -45 15 -25 17 -38 10
-58 -5 -14 -6 -28 -2 -31 4 -3 9 -17 11 -31 1 -13 8 -28 15 -32 9 -6 9 -8 -1
-8 -10 0 -10 -5 -2 -20 6 -12 9 -29 5 -38 -3 -11 3 -27 14 -39 15 -16 17 -23
8 -33 -9 -10 -9 -11 2 -5 11 6 12 0 6 -33 -4 -26 -1 -61 8 -94 8 -29 17 -77
21 -107 3 -29 10 -59 16 -66 6 -7 10 -17 8 -21 -4 -13 24 -104 31 -104 4 0 7
-8 8 -17 3 -46 31 -118 44 -115 11 3 11 1 2 -9 -9 -9 -9 -17 -1 -33 6 -12 12
-23 12 -26 1 -3 4 -4 8 -3 4 2 7 -5 7 -15 0 -9 1 -24 4 -32 2 -8 7 -27 12 -42
4 -16 11 -26 15 -23 5 3 12 0 16 -6 4 -8 3 -9 -4 -5 -7 4 -12 1 -12 -8 0 -8 4
-18 10 -21 5 -3 10 -15 10 -26 0 -10 5 -19 11 -19 5 0 8 -4 5 -9 -10 -15 24
-83 38 -78 14 5 63 -89 53 -100 -3 -3 6 -16 19 -28 14 -13 32 -44 39 -69 13
-41 12 -46 -2 -46 -10 0 -13 -6 -9 -16 3 -9 6 -18 6 -20 0 -2 4 -4 10 -4 5 0
7 8 4 18 -5 13 -4 14 4 3 6 -8 8 -21 5 -29 -3 -8 0 -18 8 -23 11 -7 11 -9 1
-9 -7 0 -10 -5 -7 -10 4 -6 11 -8 16 -5 5 3 6 0 4 -8 -3 -7 6 -30 20 -51 14
-20 25 -43 25 -51 0 -8 4 -15 8 -15 8 0 20 -25 57 -114 16 -38 80 -136 95
-146 4 -3 15 -20 24 -38 9 -18 23 -35 31 -38 8 -3 11 -12 8 -20 -3 -8 -1 -14
5 -14 5 0 12 -8 16 -18 10 -29 51 -97 89 -147 20 -26 37 -52 37 -57 0 -16 82
-127 128 -173 23 -23 42 -47 42 -52 0 -6 19 -28 42 -49 24 -22 53 -53 65 -69
13 -17 48 -63 78 -102 31 -40 53 -73 50 -73 -4 0 2 -12 13 -28 10 -15 26 -44
36 -64 9 -21 21 -38 26 -38 5 0 20 -11 34 -25 14 -14 20 -25 13 -25 -9 0 -9
-2 -1 -8 6 -4 14 -17 18 -28 9 -30 52 -74 71 -74 9 0 29 -15 46 -32 16 -18 29
-29 29 -24 0 5 9 1 20 -9 11 -10 17 -22 13 -28 -4 -6 0 -8 10 -4 16 6 22 -8
18 -35 0 -4 15 -10 34 -14 36 -6 82 -55 71 -73 -8 -13 21 -34 35 -25 7 4 9 3
5 -4 -3 -6 3 -13 14 -17 11 -4 18 -10 15 -15 -3 -4 5 -15 18 -23 12 -8 33 -24
46 -36 13 -11 27 -21 30 -21 3 0 18 -19 33 -43 15 -23 41 -55 58 -70 16 -16
30 -32 30 -36 0 -4 11 -13 25 -19 13 -6 83 -50 155 -97 71 -47 135 -85 142
-84 7 2 31 -6 53 -16 50 -24 50 -24 42 -31 -3 -3 -16 1 -29 10 -12 9 -27 16
-32 16 -5 0 8 -11 28 -25 20 -14 40 -24 44 -24 4 1 10 0 15 -1 4 -1 10 -3 15
-4 4 -1 18 -8 31 -15 17 -9 20 -15 12 -21 -9 -5 -8 -9 4 -13 9 -4 13 -3 10 3
-11 17 7 11 41 -15 18 -14 37 -25 43 -25 6 0 15 -9 21 -20 6 -11 17 -20 24
-20 7 0 25 -11 39 -24 15 -14 36 -27 47 -31 11 -4 18 -11 14 -16 -3 -5 -11 -6
-17 -3 -7 4 -9 3 -5 -1 5 -5 20 -10 35 -11 30 -3 68 -34 43 -35 -8 0 -4 -5 10
-11 14 -6 29 -10 34 -9 4 1 14 -3 22 -10 7 -6 17 -8 23 -5 12 8 41 -3 41 -16
0 -5 -10 -6 -21 -3 -15 5 -19 4 -15 -4 9 -14 39 -14 54 1 9 9 31 0 94 -39 46
-28 101 -60 123 -72 72 -39 110 -63 143 -92 18 -16 36 -29 40 -29 4 0 22 -14
41 -30 18 -17 42 -30 53 -30 10 0 21 -6 24 -14 3 -8 19 -18 35 -21 16 -4 37
-18 45 -31 9 -13 24 -24 34 -24 10 0 23 -7 30 -15 8 -9 22 -12 41 -8 18 3 29
1 29 -5 0 -6 6 -9 14 -6 7 3 20 -1 27 -9 8 -7 20 -12 27 -9 6 2 12 -1 12 -7 0
-6 6 -11 13 -11 7 0 29 -11 50 -25 20 -14 42 -23 47 -20 6 4 22 -2 38 -13 34
-23 106 -52 131 -52 11 0 38 -11 61 -24 24 -13 49 -22 55 -19 7 2 16 0 20 -6
3 -6 18 -11 33 -11 15 0 46 -9 67 -21 22 -11 55 -21 73 -20 17 0 32 -4 32 -9
0 -6 22 -10 49 -10 39 0 53 4 65 21 13 19 15 19 18 3 3 -19 53 -25 101 -13 15
4 27 4 27 -2 0 -5 11 -11 25 -15 14 -3 22 -10 19 -15 -3 -5 15 -9 40 -9 25 0
46 -4 46 -10 0 -5 13 -10 29 -10 16 0 37 -8 47 -17 11 -11 31 -17 57 -16 23 1
46 -2 53 -7 6 -6 76 -12 155 -15 271 -10 524 -27 541 -36 9 -5 75 -8 146 -7
72 2 128 0 126 -4 -6 -10 246 -8 355 2 66 6 99 6 108 -2 9 -7 13 -7 13 1 0 9
5 9 20 1 11 -6 25 -8 31 -4 7 4 39 8 73 10 33 2 79 6 101 9 205 27 274 36 295
40 14 2 45 7 70 10 25 3 61 10 80 15 19 5 64 17 100 25 75 19 159 41 210 56
19 6 78 19 130 29 94 19 177 44 242 74 18 8 83 31 143 52 61 20 115 41 122 46
7 5 17 7 23 3 5 -3 10 -1 10 5 0 6 5 8 10 5 6 -3 10 -2 10 3 0 6 10 8 22 4 14
-3 19 -2 14 6 -7 12 3 16 39 13 17 -2 17 0 5 8 -13 9 -12 11 5 12 11 1 26 1
32 0 8 -1 10 5 6 16 -6 15 -4 16 8 6 18 -15 59 -6 59 13 0 8 3 13 8 13 4 -1
12 0 17 1 6 1 19 3 30 4 11 0 19 6 18 12 -1 6 8 10 20 9 12 -1 31 4 42 11 11
8 27 14 36 14 10 0 30 11 46 23 17 14 54 29 93 36 62 12 106 32 95 43 -3 3 5
3 18 1 14 -3 29 2 36 11 8 9 26 16 42 16 15 0 34 7 43 15 8 8 19 15 25 15 20
0 101 55 97 66 -3 7 4 10 17 8 12 -2 16 -2 10 2 -18 8 -16 25 1 18 9 -3 20 3
28 15 7 12 20 21 30 21 9 0 18 4 20 9 4 12 140 125 191 159 22 15 52 35 66 44
14 10 35 22 47 27 41 18 129 79 158 109 15 17 50 45 77 64 27 18 49 39 49 46
0 7 4 11 8 8 5 -3 21 8 36 25 15 16 34 29 41 29 7 0 16 7 19 16 4 9 13 14 21
10 9 -3 15 0 15 8 0 7 10 21 22 32 12 10 18 13 14 7 -21 -36 38 0 110 66 33
31 85 76 115 101 51 42 255 244 290 286 8 10 64 64 124 119 59 55 124 116 144
135 69 68 216 243 241 286 14 24 30 44 35 44 15 0 103 114 133 172 14 27 32
52 39 55 7 3 13 9 13 15 0 5 11 24 25 42 14 18 25 37 25 42 0 5 14 29 30 54
16 25 30 52 30 61 0 9 6 22 14 28 7 6 24 43 36 81 17 52 27 70 40 70 12 0 21
11 26 32 10 43 9 39 22 69 6 15 17 29 24 32 8 2 20 24 28 48 8 24 20 50 27 57
7 7 13 20 13 27 0 8 6 18 13 22 12 7 87 154 87 170 0 4 9 25 19 47 50 105 70
158 64 173 -4 10 -2 14 4 10 11 -7 63 88 63 115 0 9 -5 19 -10 21 -6 3 -5 4 2
3 21 -4 60 90 75 182 3 18 9 35 14 38 5 3 9 18 9 34 0 16 4 32 10 35 6 3 10
14 10 23 0 9 7 30 15 46 20 38 19 86 -2 102 -16 12 -15 13 10 14 15 0 27 3 28
8 0 4 2 16 3 27 3 26 56 187 66 200 18 24 50 87 50 99 0 7 6 26 14 42 8 16 18
56 21 89 4 33 11 64 16 69 5 6 9 20 9 32 0 13 4 25 9 28 4 3 11 27 15 53 3 27
8 59 11 73 2 14 8 48 13 75 4 28 14 60 21 73 7 13 10 28 8 35 -2 7 -1 19 3 27
5 8 11 33 14 55 4 22 8 47 11 55 4 15 22 149 30 235 3 23 11 66 18 96 8 30 15
79 16 109 1 30 2 62 3 70 4 43 -3 60 -22 60 -19 0 -20 4 -14 53 3 28 7 84 10
122 2 39 5 85 7 102 2 18 -2 35 -7 37 -7 3 -5 9 4 15 13 10 13 12 0 21 -11 7
-11 10 -2 10 7 0 12 6 11 13 -1 6 0 32 1 57 l2 45 14 -45 13 -45 -6 45 c-3 25
-9 47 -14 48 -5 2 -8 16 -8 30 2 24 2 24 6 5 2 -13 8 -23 12 -23 4 0 3 28 -1
63 -4 34 -10 105 -14 157 -3 52 -11 100 -16 107 -6 7 -4 13 4 16 8 4 7 6 -4 6
-20 1 -25 31 -5 31 9 0 9 2 -1 9 -18 11 -25 100 -10 118 9 11 9 16 -1 23 -9 5
-11 17 -7 35 4 15 3 24 -2 21 -4 -3 -7 11 -5 31 1 20 0 33 -4 29 -10 -10 -32
14 -26 30 3 8 0 28 -7 44 -9 22 -9 34 -2 43 12 14 11 26 -14 142 -9 38 -17 87
-19 108 -2 20 -10 50 -18 66 -9 18 -11 33 -6 38 6 6 1 19 -11 33 -20 24 -27
50 -12 50 5 0 9 7 9 15 0 8 -4 12 -8 9 -5 -3 -11 8 -15 23 -4 15 -11 34 -17
41 -7 9 -5 11 9 7 10 -3 8 0 -6 7 -15 8 -26 23 -28 38 -2 14 -7 34 -12 45 -6
11 -16 47 -24 80 -18 73 -38 128 -53 146 -6 8 -10 29 -9 47 1 17 -2 32 -7 32
-5 0 -7 11 -5 25 3 13 2 22 -3 20 -4 -3 -10 -1 -14 5 -3 5 0 10 7 10 9 0 10 3
2 8 -10 6 -69 124 -96 192 -6 14 -10 42 -9 63 0 20 -4 37 -9 37 -6 0 -9 3 -8
8 3 14 -25 92 -34 92 -4 0 -8 11 -8 25 0 14 -4 25 -10 25 -5 0 -10 7 -10 15 0
8 -5 15 -11 15 -6 0 -9 6 -6 14 3 8 -5 31 -18 50 -37 55 -75 125 -75 139 0 7
-8 22 -18 33 -19 20 -22 26 -22 48 0 7 -11 30 -25 50 -13 20 -34 60 -47 89
-12 28 -38 79 -57 112 -20 33 -43 74 -51 90 -8 17 -22 38 -31 48 -9 10 -40 65
-70 122 -29 58 -56 105 -60 105 -4 0 -13 13 -20 29 -20 40 -98 129 -199 225
-46 45 -99 96 -116 114 -18 17 -35 32 -38 32 -3 0 -37 31 -75 69 -44 43 -73
65 -79 59 -6 -6 -16 1 -27 19 -10 15 -27 36 -39 45 -11 9 -21 21 -21 26 0 6
-13 23 -30 39 -16 16 -46 51 -65 78 -19 27 -51 66 -72 86 -21 20 -38 42 -38
48 0 6 -5 11 -11 11 -6 0 -60 48 -119 108 -120 118 -169 162 -180 162 -4 0
-13 7 -20 15 -7 8 -19 15 -28 15 -16 0 -68 50 -64 63 1 4 -5 7 -13 7 -7 0 -18
6 -22 13 -8 14 -42 31 -55 29 -4 -1 -5 4 -3 11 4 12 -72 67 -93 67 -5 0 -15 7
-22 15 -7 8 -16 12 -21 9 -5 -3 -9 2 -9 10 0 9 -7 16 -15 16 -8 0 -27 12 -42
26 -15 14 -36 32 -45 41 -9 8 -21 12 -27 8 -6 -3 -11 0 -11 8 0 15 -109 104
-122 99 -5 -1 -7 2 -5 6 4 15 -102 110 -120 107 -10 -1 -24 2 -31 8 -7 5 -31
20 -54 32 -24 13 -47 31 -53 41 -20 36 -40 54 -57 54 -10 0 -18 4 -18 9 0 7
-26 20 -52 25 -4 0 -17 9 -29 19 -51 44 -114 65 -135 45 -3 -4 -13 -4 -22 0
-15 5 -15 4 -3 -12 13 -16 12 -16 -12 -5 -15 7 -27 17 -27 22 0 5 -9 7 -20 4
-10 -3 -24 1 -31 9 -9 11 -7 14 10 14 24 0 28 15 6 24 -8 3 -15 1 -15 -4 0
-11 -22 -9 -31 3 -3 5 -14 9 -23 11 -10 1 -22 9 -26 17 -5 7 -15 14 -22 15 -7
0 -23 2 -35 2 -15 2 -20 7 -17 20 7 27 -9 42 -52 48 -21 3 -46 8 -54 11 -8 4
-18 7 -22 8 -5 2 -11 4 -15 5 -5 1 -11 2 -15 1 -5 0 -8 4 -8 10 0 5 -4 7 -10
4 -5 -3 -10 -1 -10 6 0 7 -8 9 -21 6 -24 -7 -74 9 -111 35 -14 10 -40 18 -57
18 -17 0 -31 5 -31 12 0 6 -3 9 -6 6 -3 -3 -19 7 -37 23 -28 26 -51 33 -94 32
-7 -1 -13 3 -13 7 0 5 -15 11 -32 15 -18 4 -55 17 -83 30 -27 13 -78 30 -112
36 -35 7 -63 18 -63 24 0 7 -26 18 -57 25 -32 7 -62 16 -68 20 -12 9 -66 20
-120 27 -22 2 -56 12 -76 23 -20 10 -50 17 -68 16 -17 -1 -31 2 -31 7 0 5 -7
4 -15 -3 -16 -13 -39 -4 -29 12 5 7 2 8 -6 3 -7 -4 -16 -2 -20 5 -4 6 -32 14
-61 17 -30 3 -61 8 -69 12 -8 4 -43 7 -77 6 -44 0 -63 4 -63 13 0 6 -4 12 -10
12 -5 0 -10 -6 -10 -12 0 -9 -3 -10 -8 -2 -12 19 -166 35 -190 20 -7 -4 -12
-2 -12 4 0 6 -8 10 -17 8 -10 -1 -23 1 -30 5 -6 4 -47 12 -90 18 -43 6 -89 13
-103 15 -14 2 -71 9 -127 15 -88 9 -106 9 -134 -5 -40 -20 -39 -20 -39 2 0 12
-3 13 -8 5 -4 -7 -28 -12 -55 -11 -27 0 -44 5 -41 10 4 5 17 7 31 3 16 -4 22
-2 18 5 -8 13 -58 13 -72 -1 -8 -8 -20 -9 -41 -1 -27 9 -29 8 -24 -10 4 -18 3
-19 -17 -9 -11 7 -21 16 -21 21 0 6 -5 10 -10 10 -6 0 -10 -8 -8 -17 3 -20 6
-19 -105 -4 -5 0 -6 5 -3 10 9 15 -16 19 -105 20 -51 0 -79 -3 -70 -8z m616
-346 c138 -4 271 -16 327 -30 13 -3 97 -14 188 -25 91 -11 174 -22 185 -24 11
-2 25 -5 31 -5 7 -1 25 -13 42 -27 26 -23 40 -27 108 -30 73 -3 109 -12 189
-49 37 -17 256 -85 272 -85 7 0 27 -6 45 -14 38 -17 122 -44 158 -52 13 -3 29
-9 35 -14 5 -4 28 -11 50 -15 22 -4 78 -27 125 -51 47 -23 135 -64 195 -89 61
-26 128 -55 150 -65 22 -9 65 -28 95 -40 30 -12 96 -40 145 -62 120 -54 141
-63 203 -87 30 -11 66 -31 80 -46 34 -33 118 -95 129 -95 11 0 63 -49 63 -58
0 -5 16 -14 35 -21 19 -6 43 -22 53 -34 10 -12 31 -30 47 -39 112 -63 183 -98
200 -98 11 0 52 -31 90 -68 77 -74 132 -117 185 -146 19 -10 54 -32 78 -48 24
-15 45 -28 48 -28 14 0 101 -77 199 -176 121 -123 135 -139 135 -153 0 -5 10
-11 22 -13 21 -3 71 -75 62 -90 -2 -3 8 -17 24 -30 15 -13 37 -40 47 -61 11
-20 27 -39 36 -42 8 -3 29 -22 45 -42 16 -21 36 -44 44 -53 8 -8 26 -31 40
-50 13 -19 30 -41 37 -48 7 -7 45 -55 84 -107 39 -52 75 -95 80 -95 5 0 26
-26 46 -57 49 -79 167 -257 173 -263 3 -3 14 -21 24 -40 21 -39 91 -149 103
-165 26 -32 103 -179 165 -315 11 -25 33 -63 48 -85 14 -22 32 -54 39 -72 7
-18 20 -38 28 -45 16 -13 37 -58 34 -72 -1 -4 7 -16 18 -25 11 -10 23 -29 26
-44 4 -15 11 -27 16 -27 5 0 6 7 3 15 -4 8 -4 15 -1 15 7 0 57 -108 57 -123 0
-6 16 -50 35 -97 22 -56 40 -122 50 -194 9 -60 17 -112 19 -115 2 -3 7 -28 10
-56 4 -27 13 -77 21 -110 7 -33 21 -100 30 -150 9 -49 25 -128 35 -175 9 -47
16 -114 14 -150 -1 -36 2 -70 7 -76 5 -6 13 -31 18 -55 10 -47 16 -69 81 -304
60 -217 83 -456 61 -635 -5 -47 -10 -92 -10 -100 0 -8 -3 -33 -5 -55 -3 -22
-8 -67 -11 -100 -4 -33 -7 -69 -9 -80 -1 -11 -5 -51 -9 -90 -4 -38 -10 -94
-13 -122 -4 -38 -10 -53 -20 -53 -8 0 -13 -4 -9 -9 3 -5 1 -12 -4 -16 -6 -3
-8 -12 -4 -20 3 -8 0 -15 -6 -15 -5 0 -15 -10 -22 -21 -8 -15 -8 -19 0 -15 6
4 11 0 11 -9 0 -8 -6 -18 -14 -21 -13 -5 -29 -39 -27 -56 0 -4 -6 -5 -14 -2
-9 4 -15 0 -15 -10 0 -9 -6 -16 -12 -16 -9 0 -8 -4 2 -10 11 -7 11 -10 2 -10
-7 0 -10 -4 -7 -10 3 -5 -1 -10 -9 -10 -10 0 -13 -6 -10 -15 4 -8 1 -15 -6
-15 -7 0 -9 -8 -5 -20 3 -11 2 -20 -3 -20 -5 0 -7 -11 -4 -25 3 -19 0 -25 -14
-25 -9 0 -14 -3 -11 -7 4 -3 0 -15 -9 -24 -16 -17 -15 -19 1 -25 15 -6 16 -9
4 -18 -23 -18 -30 -77 -9 -84 16 -6 12 -22 -6 -22 -14 0 -14 -3 -4 -15 8 -10
9 -15 2 -15 -7 0 -9 -7 -5 -17 4 -11 3 -14 -5 -9 -7 4 -12 2 -12 -3 0 -6 4
-11 8 -11 5 0 9 -7 9 -15 0 -8 -4 -12 -8 -10 -3 3 -9 -4 -12 -15 -3 -10 0 -21
7 -23 8 -3 7 -8 -2 -19 -16 -19 -23 -89 -10 -104 11 -15 0 -44 -18 -44 -8 0
-14 -5 -14 -10 0 -6 3 -9 8 -9 20 3 33 -2 27 -11 -4 -6 -14 -9 -23 -8 -10 2
-18 -5 -20 -17 -4 -17 -3 -18 14 -5 16 14 17 13 11 -3 -4 -10 -7 -25 -7 -33 0
-8 -7 -11 -17 -8 -13 4 -15 3 -5 -4 11 -7 10 -20 -3 -73 -9 -35 -24 -86 -34
-114 -30 -82 -74 -237 -76 -270 -1 -5 -15 -55 -33 -110 -17 -55 -36 -118 -41
-140 -6 -22 -27 -67 -46 -100 -19 -33 -61 -112 -92 -175 -57 -116 -85 -153
-123 -165 -12 -4 -31 -27 -43 -51 -11 -24 -25 -44 -29 -44 -4 0 -8 -7 -8 -15
0 -8 -9 -24 -20 -35 -12 -12 -25 -31 -30 -43 -6 -12 -33 -56 -60 -97 -28 -41
-53 -82 -57 -90 -4 -8 -26 -40 -48 -70 -61 -80 -142 -210 -160 -255 -9 -22
-20 -49 -25 -60 -5 -11 -19 -45 -30 -76 -14 -38 -42 -81 -88 -132 -37 -41 -89
-105 -117 -142 -27 -37 -62 -81 -78 -98 -15 -18 -42 -52 -60 -76 -56 -76 -127
-149 -162 -165 -35 -17 -219 -154 -265 -197 -32 -31 -218 -169 -246 -184 -12
-6 -34 -25 -49 -43 -15 -18 -30 -32 -35 -32 -4 0 -43 -23 -86 -52 -44 -28
-110 -72 -149 -97 -38 -25 -80 -55 -92 -66 -11 -11 -47 -36 -80 -55 -32 -19
-80 -51 -108 -70 -27 -20 -77 -49 -110 -65 -62 -30 -65 -31 -104 -38 -13 -2
-30 -12 -37 -22 -8 -10 -14 -15 -14 -10 0 4 -8 1 -17 -7 -10 -9 -34 -23 -53
-33 l-35 -18 19 22 c11 11 14 21 8 21 -7 0 -12 -4 -12 -10 0 -5 -8 -10 -19
-10 -13 0 -18 -7 -17 -22 1 -19 -5 -24 -29 -26 -23 -2 -27 0 -15 7 13 9 12 11
-3 11 -14 0 -17 -5 -12 -20 4 -14 2 -20 -8 -20 -8 0 -18 -8 -22 -17 -6 -17 -7
-17 -20 0 -16 22 -60 14 -51 -8 6 -17 -18 -27 -32 -13 -7 7 -16 4 -30 -10 -11
-11 -23 -18 -26 -15 -2 3 -17 -4 -33 -15 -15 -11 -64 -39 -108 -62 -44 -23
-105 -55 -135 -71 -30 -16 -99 -46 -153 -65 -55 -20 -120 -48 -145 -62 -26
-15 -58 -29 -72 -30 -14 -2 -34 -12 -46 -23 -11 -10 -32 -19 -47 -19 -14 0
-28 -4 -31 -9 -3 -4 -27 -14 -53 -21 -27 -7 -59 -19 -73 -26 -66 -33 -148 -60
-285 -93 -114 -27 -148 -32 -260 -33 -55 0 -136 -4 -180 -9 -44 -5 -105 -11
-135 -13 -30 -3 -91 -10 -135 -16 -91 -13 -298 -13 -460 -1 -60 5 -119 9 -130
9 -59 0 -319 12 -372 17 -34 4 -97 13 -140 21 -43 8 -94 16 -113 18 -19 2 -78
8 -130 14 -52 6 -117 13 -145 16 -62 6 -199 24 -244 32 -23 5 -36 2 -43 -7 -8
-11 -9 -10 -4 4 4 12 0 17 -12 17 -10 0 -42 6 -72 14 -30 8 -73 17 -95 20 -22
3 -51 8 -65 11 -14 3 -50 10 -80 16 -54 10 -153 52 -178 76 -7 7 -22 13 -32
13 -11 0 -23 6 -27 13 -4 6 -26 21 -48 32 -22 10 -53 28 -68 38 -15 11 -37 17
-47 14 -11 -3 -26 3 -36 14 -10 11 -24 17 -31 14 -8 -2 -12 -1 -8 4 3 5 -12
15 -32 21 -21 7 -45 18 -53 25 -15 13 -122 64 -195 93 -22 9 -74 34 -115 55
-41 22 -113 59 -160 83 -46 25 -89 49 -94 54 -6 6 -18 10 -27 10 -9 0 -20 7
-23 15 -3 9 -20 22 -39 30 -18 7 -41 23 -51 34 -11 12 -24 21 -29 21 -6 0 -24
10 -41 23 -17 13 -53 34 -81 46 -27 12 -71 33 -97 47 -27 13 -54 24 -62 24 -7
0 -19 7 -26 15 -7 8 -19 15 -27 15 -15 0 -48 22 -129 85 -28 22 -62 47 -74 55
-13 8 -40 29 -59 46 -20 17 -45 37 -57 45 -29 19 -136 113 -198 174 -91 88
-175 161 -231 200 -16 11 -59 48 -95 82 -36 34 -78 66 -93 72 -15 6 -27 15
-27 21 0 6 5 8 12 4 7 -4 8 -3 4 4 -4 7 -14 12 -22 12 -8 0 -12 5 -9 10 3 6 1
10 -4 10 -6 0 -11 7 -11 15 0 8 -15 24 -32 35 -18 11 -28 20 -23 20 6 0 6 3
-1 8 -13 9 -74 109 -74 122 0 5 -9 14 -21 20 -11 7 -18 14 -15 17 9 9 -76 121
-162 212 -29 31 -74 83 -99 116 -26 33 -64 79 -84 102 -21 22 -47 58 -58 80
-11 21 -34 56 -50 78 -55 76 -139 210 -181 290 -23 44 -55 99 -71 123 -16 24
-29 47 -29 53 0 5 -26 58 -57 117 -98 186 -124 243 -148 331 -13 47 -28 100
-34 116 -37 111 -77 253 -92 330 -10 50 -29 131 -43 180 -15 50 -38 131 -52
180 -14 50 -34 146 -45 215 -36 220 -63 321 -124 468 -14 34 -24 66 -21 71 3
4 1 23 -4 42 -16 54 -13 443 3 524 24 113 48 398 53 605 2 111 9 211 20 302 2
24 9 79 14 123 5 44 12 130 15 190 8 170 13 198 55 350 15 55 42 129 61 165
45 86 51 103 38 94 -7 -4 -9 0 -6 12 4 11 9 31 12 46 4 14 15 28 26 31 10 3
19 10 19 17 0 6 -4 9 -9 6 -16 -10 -20 21 -5 42 8 11 12 27 9 34 -3 8 11 32
30 53 20 22 44 59 55 83 10 23 22 42 25 42 3 0 3 -4 0 -10 -3 -5 -4 -10 -2
-10 6 0 57 86 57 95 0 3 -4 4 -9 1 -14 -9 0 36 16 56 8 9 21 14 29 11 8 -3 14
0 14 5 0 6 6 17 13 24 15 16 47 65 47 73 0 4 -5 3 -12 -1 -7 -4 -8 -3 -4 5 4
6 11 9 16 6 17 -11 107 155 92 170 -4 3 -1 5 6 3 14 -3 73 119 106 222 28 87
142 270 312 500 38 52 76 105 84 117 31 45 162 213 195 249 19 21 35 43 35 50
0 7 3 14 8 16 4 2 19 24 33 51 14 26 63 87 110 136 46 49 103 113 126 143 23
29 77 84 120 123 91 82 218 219 260 281 8 12 33 35 56 50 23 16 61 45 83 65
36 32 72 58 142 104 27 17 41 29 98 83 31 28 60 52 65 52 5 0 17 8 27 18 10 9
52 39 93 67 40 27 118 82 171 122 54 40 102 73 108 73 5 0 10 4 10 9 0 5 22
18 48 29 27 12 54 28 61 36 6 7 26 20 44 27 44 18 272 146 327 184 43 31 158
75 193 75 9 0 16 5 15 11 -2 6 3 14 11 17 8 2 11 0 8 -5 -9 -14 42 5 133 50
41 20 122 48 180 62 58 15 130 33 161 41 68 17 174 56 237 88 62 31 130 51
222 66 41 7 89 16 105 21 17 5 122 20 235 33 158 20 273 26 500 30 280 5 440
13 449 22 2 2 34 2 70 -1 36 -3 134 -7 216 -10z m1475 -5 c0 -5 -4 -10 -10
-10 -5 0 -10 5 -10 10 0 6 5 10 10 10 6 0 10 -4 10 -10z m610 -230 c-18 -11
-22 -7 -14 14 5 13 10 14 18 6 8 -8 7 -13 -4 -20z m166 -12 c5 -7 2 -9 -9 -5
-9 3 -18 1 -20 -6 -2 -7 -8 -8 -13 -4 -5 4 -2 12 6 17 20 13 27 12 36 -2z
m1294 -828 c0 -5 -2 -10 -4 -10 -3 0 -8 5 -11 10 -3 6 -1 10 4 10 6 0 11 -4
11 -10z m-8850 -1884 c0 -3 -4 -8 -10 -11 -5 -3 -10 -1 -10 4 0 6 5 11 10 11
6 0 10 -2 10 -4z m-184 -403 c-11 -20 -15 -23 -16 -10 0 21 24 61 28 48 2 -6
-4 -22 -12 -38z m-118 -189 c-15 -26 -24 -33 -26 -23 -3 15 38 72 46 65 1 -2
-7 -21 -20 -42z m-78 -128 c0 -3 -4 -8 -10 -11 -5 -3 -10 -1 -10 4 0 6 5 11
10 11 6 0 10 -2 10 -4z m-625 -1396 c3 -5 1 -10 -4 -10 -6 0 -11 5 -11 10 0 6
2 10 4 10 3 0 8 -4 11 -10z m455 -3110 c0 -5 -4 -10 -10 -10 -5 0 -10 5 -10
10 0 6 5 10 10 10 6 0 10 -4 10 -10z m9745 -2040 c3 -5 2 -10 -4 -10 -5 0 -13
5 -16 10 -3 6 -2 10 4 10 5 0 13 -4 16 -10z m-7834 -463 c-13 -13 -26 -3 -16
12 3 6 11 8 17 5 6 -4 6 -10 -1 -17z m6639 -81 c0 -3 -4 -8 -10 -11 -5 -3 -10
-1 -10 4 0 6 5 11 10 11 6 0 10 -2 10 -4z m-1743 -1042 c-3 -3 -12 -4 -19 -1
-8 3 -5 6 6 6 11 1 17 -2 13 -5z"/>
<path d="M8340 9240 c-19 -5 -76 -15 -126 -24 -140 -25 -194 -48 -309 -132
-38 -28 -81 -57 -95 -64 -14 -7 -27 -16 -30 -20 -3 -4 -19 -15 -37 -24 -51
-26 -210 -197 -307 -331 -16 -22 -35 -44 -41 -50 -20 -17 -72 -107 -105 -180
-28 -60 -33 -87 -41 -193 -5 -67 -7 -139 -5 -160 7 -71 27 -237 35 -298 6 -40
28 -99 64 -175 31 -63 59 -130 63 -149 8 -40 67 -196 96 -255 22 -43 159 -277
168 -285 15 -15 51 -72 65 -106 9 -21 21 -41 27 -45 6 -4 12 -25 14 -48 2 -23
9 -51 15 -63 7 -13 13 -36 15 -53 2 -16 10 -50 18 -74 9 -24 16 -51 16 -61 0
-10 7 -21 16 -24 10 -4 13 -13 9 -26 -7 -21 11 -63 24 -56 4 3 6 -6 3 -19 -2
-14 3 -42 11 -64 9 -21 14 -41 11 -43 -2 -3 2 -32 11 -64 9 -32 15 -84 14
-115 -1 -31 1 -62 6 -69 5 -8 4 -11 -2 -7 -6 4 -15 -23 -22 -66 -21 -120 -40
-181 -66 -217 -7 -8 -20 -37 -30 -65 -22 -59 -105 -238 -114 -245 -10 -8 -31
-57 -58 -140 -14 -41 -34 -87 -44 -102 -11 -14 -19 -30 -19 -35 0 -5 -12 -25
-26 -44 -14 -19 -40 -63 -57 -99 -17 -36 -34 -67 -37 -70 -3 -3 -12 -18 -20
-35 -8 -16 -21 -36 -27 -43 -7 -7 -13 -22 -13 -33 0 -10 -4 -19 -9 -19 -5 0
-12 -17 -16 -37 -4 -21 -10 -42 -15 -48 -4 -5 -11 -23 -15 -40 -10 -37 -9 -34
-23 -68 -7 -16 -12 -33 -12 -38 0 -5 -4 -17 -10 -27 -17 -28 -61 -194 -66
-247 -3 -27 -11 -66 -19 -85 -25 -67 -38 -147 -30 -186 5 -22 7 -43 6 -47 -3
-16 20 -130 40 -198 11 -38 30 -76 44 -89 14 -13 25 -21 25 -17 0 3 12 -5 26
-18 39 -37 112 -68 158 -69 23 0 84 8 136 18 52 10 104 20 115 21 31 3 65 17
65 25 0 5 14 11 30 15 17 4 43 17 58 29 15 12 41 28 57 36 17 8 37 23 46 32 9
10 18 15 21 13 3 -3 13 4 23 15 10 11 23 20 29 20 7 0 19 8 28 18 23 25 70 59
138 101 76 45 279 212 280 229 0 6 7 12 16 12 17 0 269 248 336 330 35 43 64
87 196 295 87 136 188 345 221 456 34 112 41 162 43 269 2 105 -16 190 -58
270 -7 14 -16 38 -19 54 -4 18 -34 56 -79 100 -40 39 -83 89 -96 111 -13 22
-96 112 -184 200 -89 88 -183 189 -211 225 -63 80 -249 266 -380 378 -190 163
-394 365 -395 391 0 8 -44 62 -96 120 -23 25 -48 60 -57 76 -9 17 -47 63 -85
103 -62 66 -74 86 -120 200 -28 70 -54 147 -58 172 -3 25 -10 57 -16 71 -13
37 -17 210 -6 294 14 100 68 255 89 255 4 0 12 15 20 33 7 17 16 34 19 37 3 3
17 21 30 40 76 110 217 260 244 260 8 0 16 7 20 15 3 8 10 15 15 15 10 0 121
67 131 79 3 3 12 11 21 16 9 6 29 19 44 29 21 15 49 21 114 24 91 4 105 -1
112 -42 3 -14 19 -24 54 -33 110 -29 185 -10 236 60 25 35 30 49 26 83 -11
102 -70 145 -197 143 -41 -1 -91 -5 -110 -9z m-543 -2572 c-3 -8 -6 -5 -6 6
-1 11 2 17 5 13 3 -3 4 -12 1 -19z"/>
<path d="M4265 8928 c-16 -4 -57 -23 -90 -41 -51 -28 -68 -45 -122 -126 -70
-104 -80 -121 -119 -200 -20 -40 -23 -55 -14 -61 9 -6 9 -13 1 -29 -7 -11 -16
-21 -21 -21 -5 0 -6 -7 -3 -17 4 -10 2 -14 -4 -10 -6 4 -13 -2 -16 -13 -3 -11
-1 -18 3 -15 4 3 6 -5 2 -17 -3 -13 -7 -17 -10 -10 -6 20 -34 -39 -29 -60 3
-10 2 -18 -3 -18 -10 0 -34 -86 -26 -98 3 -6 1 -12 -6 -14 -13 -5 -20 -35 -19
-86 0 -18 -4 -30 -8 -27 -5 2 -11 -10 -14 -28 -4 -17 -15 -75 -25 -127 -11
-52 -22 -138 -26 -190 -3 -53 -11 -111 -16 -130 -9 -31 -18 -111 -35 -320 -9
-105 -22 -208 -44 -329 -16 -83 -21 -156 -21 -275 0 -88 -5 -179 -11 -201 -35
-138 -53 -323 -64 -661 -2 -82 -11 -202 -20 -265 -16 -123 -20 -364 -7 -373 5
-3 10 -38 11 -78 1 -65 15 -293 26 -436 6 -85 17 -146 27 -159 5 -7 7 -17 3
-23 -13 -21 55 -137 121 -209 68 -74 131 -122 173 -136 14 -4 34 -16 45 -26
11 -11 25 -19 30 -18 19 2 56 -13 56 -22 0 -5 7 -9 15 -9 8 0 15 -5 15 -11 0
-11 11 -10 55 6 20 7 20 6 1 -9 -20 -16 -11 -21 18 -10 9 3 13 10 10 15 -3 5
2 6 11 3 14 -6 14 -8 -2 -20 -16 -12 -17 -13 -1 -14 9 0 19 4 22 9 8 12 59 1
69 -15 4 -8 13 -14 20 -14 8 0 7 4 -2 9 -11 7 -5 11 22 16 25 5 42 3 53 -6 15
-12 14 -14 -7 -21 -13 -4 -6 -5 16 -1 78 13 153 5 176 -18 19 -19 28 -20 162
-15 251 10 331 17 372 32 22 7 93 15 157 17 65 3 123 9 130 14 7 6 47 14 88
17 41 4 107 14 145 23 39 8 89 17 113 19 41 4 126 36 135 51 19 34 15 61 -14
92 l-30 34 -112 -7 c-62 -4 -166 -9 -232 -12 -66 -3 -176 -12 -245 -19 -180
-20 -269 -18 -363 6 -119 29 -236 75 -257 100 -3 3 -16 12 -28 18 -37 20 -70
51 -124 119 l-51 64 17 34 c9 19 16 43 16 53 0 10 13 47 28 82 44 98 136 418
145 504 3 22 12 60 20 85 32 89 55 201 63 300 3 36 15 97 26 135 38 138 48
181 48 222 0 23 12 88 26 143 14 56 24 110 21 121 -3 10 -1 19 5 19 5 0 7 4 4
8 -3 5 2 46 10 92 8 46 12 92 8 102 -3 10 -1 18 5 18 27 0 71 366 77 650 2
124 10 265 16 313 9 75 9 90 -3 98 -8 5 -9 9 -3 9 8 0 12 32 13 95 1 52 5 115
10 140 15 81 -1 480 -19 480 -1 0 -3 28 -6 63 -6 90 -65 274 -114 352 -5 8
-17 29 -25 47 -9 17 -30 42 -47 55 -17 12 -40 31 -51 41 -11 9 -23 17 -27 17
-5 0 -50 25 -101 55 -51 30 -109 58 -128 61 -20 4 -43 10 -51 14 -8 4 -28 3
-45 -2z"/>
<path d="M1005 8579 c-4 -6 -5 -12 -2 -15 2 -3 7 2 10 11 7 17 1 20 -8 4z"/>
<path d="M900 8385 c-7 -8 -9 -15 -5 -15 4 0 4 -6 -1 -13 -5 -7 -1 -4 9 6 15
17 23 37 13 37 -2 0 -9 -7 -16 -15z"/>
<path d="M865 8299 c-4 -6 -5 -12 -2 -15 2 -3 7 2 10 11 7 17 1 20 -8 4z"/>
<path d="M840 8255 c-7 -9 -8 -15 -2 -15 5 0 12 7 16 15 3 8 4 15 2 15 -2 0
-9 -7 -16 -15z"/>
<path d="M793 8145 c-3 -9 -3 -18 -1 -21 3 -3 8 4 11 16 6 23 -1 27 -10 5z"/>
<path d="M11886 4955 c-3 -8 -1 -15 4 -15 6 0 10 7 10 15 0 8 -2 15 -4 15 -2
0 -6 -7 -10 -15z"/>
<path d="M4148 4003 c7 -3 16 -2 19 1 4 3 -2 6 -13 5 -11 0 -14 -3 -6 -6z"/>
<path d="M4403 3963 c9 -2 25 -2 35 0 9 3 1 5 -18 5 -19 0 -27 -2 -17 -5z"/>
<path d="M6278 12543 c6 -2 18 -2 25 0 6 3 1 5 -13 5 -14 0 -19 -2 -12 -5z"/>
<path d="M6580 12539 c0 -5 5 -7 10 -4 6 3 10 8 10 11 0 2 -4 4 -10 4 -5 0
-10 -5 -10 -11z"/>
<path d="M9060 11906 c0 -2 7 -6 15 -10 8 -3 15 -1 15 4 0 6 -7 10 -15 10 -8
0 -15 -2 -15 -4z"/>
<path d="M9120 11880 c20 -13 33 -13 25 0 -3 6 -14 10 -23 10 -15 0 -15 -2 -2
-10z"/>
<path d="M9170 11849 c0 -5 9 -9 20 -9 11 0 20 2 20 4 0 2 -9 6 -20 9 -11 3
-20 1 -20 -4z"/>
<path d="M12255 8290 c-3 -5 -1 -10 4 -10 6 0 11 5 11 10 0 6 -2 10 -4 10 -3
0 -8 -4 -11 -10z"/>
<path d="M12547 6580 c-3 -11 -1 -20 4 -20 5 0 9 9 9 20 0 11 -2 20 -4 20 -2
0 -6 -9 -9 -20z"/>
<path d="M12542 6420 c0 -19 2 -27 5 -17 2 9 2 25 0 35 -3 9 -5 1 -5 -18z"/>
<path d="M12541 6324 c0 -11 3 -14 6 -6 3 7 2 16 -1 19 -3 4 -6 -2 -5 -13z"/>
<path d="M745 3896 c10 -14 19 -26 22 -26 7 0 -17 39 -28 46 -6 3 -3 -5 6 -20z"/>
<path d="M5010 410 c0 -5 10 -10 23 -10 18 0 19 2 7 10 -19 13 -30 13 -30 0z"/>
</g>
</svg>
