<?xml version="1.0" standalone="no"?>
<!DOCTYPE svg PUBLIC "-//W3C//DTD SVG 20010904//EN"
 "http://www.w3.org/TR/2001/REC-SVG-20010904/DTD/svg10.dtd">
<svg version="1.0" xmlns="http://www.w3.org/2000/svg"
 width="298.000000pt" height="298.000000pt" viewBox="0 0 298.000000 298.000000"
 preserveAspectRatio="xMidYMid meet">
<metadata>
Created by potrace 1.11, written by Peter Selinger 2001-2013
</metadata>
<g transform="translate(0.000000,298.000000) scale(0.100000,-0.100000)"
fill="#000000" stroke="none">
<path d="M1390 2967 c-4 -4 -45 -10 -145 -21 -41 -5 -148 -31 -220 -54 -105
-35 -381 -178 -405 -211 -3 -4 -30 -26 -60 -49 -51 -38 -139 -129 -192 -198
-12 -16 -25 -31 -28 -34 -9 -8 -103 -130 -144 -188 -21 -29 -54 -97 -73 -150
-19 -53 -43 -120 -53 -147 -33 -88 -47 -180 -50 -325 -1 -58 -3 -143 -4 -190
-2 -54 4 -116 16 -170 11 -47 21 -94 22 -105 12 -73 49 -179 100 -285 41 -86
126 -223 146 -235 6 -3 33 -40 60 -80 27 -41 57 -78 65 -83 9 -4 37 -29 63
-54 60 -58 225 -171 273 -187 20 -6 64 -32 99 -56 35 -25 68 -45 73 -45 5 0
23 -6 40 -14 50 -22 128 -44 180 -51 26 -3 57 -9 70 -14 41 -15 367 -22 462
-9 155 20 463 132 548 199 29 22 86 65 127 95 90 66 249 219 306 295 76 100
167 286 210 429 12 41 29 93 37 115 8 22 18 54 21 70 2 17 8 44 12 60 4 17 7
47 8 67 1 21 4 38 7 38 7 0 8 8 8 123 1 100 -3 168 -13 207 -6 26 -11 54 -22
127 -3 24 -10 46 -15 49 -5 3 -7 10 -4 15 4 5 1 9 -5 9 -6 0 -8 5 -4 11 8 13
-22 82 -114 268 -66 132 -69 136 -207 276 -77 78 -171 164 -208 191 -175 127
-202 144 -216 139 -9 -3 -12 -3 -8 1 7 7 -113 60 -191 84 -20 6 -46 15 -57 20
-38 17 -131 39 -186 45 -29 4 -61 9 -69 11 -21 8 -254 17 -260 11z m268 -91
c40 -5 75 -13 78 -17 3 -5 14 -9 24 -9 68 0 388 -134 478 -200 36 -27 69 -47
73 -44 4 2 13 -3 20 -12 8 -9 35 -31 62 -49 85 -57 279 -307 350 -450 13 -27
34 -69 46 -93 12 -24 31 -91 42 -150 11 -59 29 -144 40 -189 35 -139 22 -312
-28 -389 -15 -24 -17 -33 -28 -119 -10 -87 -54 -233 -84 -281 -14 -23 -52 -81
-84 -129 -33 -49 -63 -99 -68 -112 -18 -49 -108 -146 -197 -212 -122 -91 -194
-139 -239 -157 -21 -9 -46 -23 -55 -32 -10 -8 -18 -12 -18 -8 0 4 -24 -6 -52
-22 -90 -52 -254 -112 -321 -118 -102 -9 -277 -11 -337 -2 -30 4 -80 10 -110
13 -121 11 -176 28 -304 92 -241 119 -303 158 -401 249 -27 25 -60 54 -72 63
-11 10 -32 34 -45 53 -14 20 -45 60 -70 90 -49 59 -110 154 -150 238 -27 55
-81 247 -93 327 -3 24 -13 60 -22 80 -15 37 -15 93 2 302 2 19 6 73 10 120 8
113 16 139 71 246 25 50 62 122 81 160 33 65 110 183 140 213 8 8 20 26 27 40
8 15 25 37 38 48 12 12 48 48 78 81 66 71 203 178 285 223 33 18 67 39 76 46
8 8 23 14 33 14 9 0 31 7 47 16 17 8 40 17 50 19 11 2 53 15 93 29 111 39 348
53 534 32z"/>
<path d="M1928 2499 c-27 -7 -91 -39 -98 -48 -3 -4 -21 -17 -41 -29 -20 -12
-54 -44 -75 -70 -21 -26 -47 -56 -56 -66 -33 -37 -58 -101 -59 -156 -3 -82 10
-170 31 -210 10 -19 23 -53 29 -75 6 -22 38 -87 71 -145 33 -58 60 -111 60
-119 0 -13 13 -60 28 -101 21 -57 27 -128 15 -181 -11 -52 -66 -184 -114 -274
-51 -97 -81 -157 -83 -168 -2 -7 -6 -21 -10 -32 -19 -49 -25 -72 -30 -100 -4
-28 -10 -56 -17 -80 -5 -20 13 -110 27 -132 20 -31 68 -54 101 -48 16 3 41 7
57 10 42 8 150 77 256 163 170 138 305 347 317 492 8 97 -12 137 -142 281 -61
66 -137 146 -169 177 -125 118 -183 178 -212 216 -16 22 -43 56 -60 75 -60 70
-90 196 -70 291 17 77 95 176 180 227 67 41 102 48 116 24 12 -23 88 -21 105
3 15 20 12 50 -6 73 -13 14 -100 16 -151 2z"/>
<path d="M870 2351 c-33 -34 -93 -156 -103 -208 -2 -10 -7 -25 -10 -33 -6 -15
-16 -71 -23 -125 -2 -16 -7 -48 -9 -69 -3 -22 -8 -72 -11 -110 -3 -39 -7 -78
-10 -86 -3 -8 -10 -64 -14 -125 -5 -60 -11 -121 -14 -134 -8 -36 -21 -274 -20
-376 1 -140 13 -270 29 -308 25 -61 134 -138 199 -141 17 0 34 -5 38 -11 5 -6
8 -4 8 5 0 12 2 12 9 2 15 -24 159 -20 402 12 14 2 49 9 78 16 44 10 52 15 49
34 -3 20 -8 21 -98 20 -52 -1 -124 -4 -160 -6 -100 -7 -198 28 -243 88 -17 22
-16 25 6 86 27 70 37 111 79 308 11 52 22 109 23 127 2 17 6 36 9 42 4 6 9 30
12 53 2 24 9 66 14 93 21 111 20 94 34 470 3 66 1 143 -5 170 -5 28 -11 60
-14 73 -9 52 -50 106 -105 139 -74 44 -104 43 -150 -6z"/>
</g>
</svg>
