<?xml version="1.0" encoding="utf-8"?>
<!-- Generator: Adobe Illustrator 24.0.2, SVG Export Plug-In . SVG Version: 6.00 Build 0)  -->
<svg version="1.1" id="Layer_1" xmlns="http://www.w3.org/2000/svg" xmlns:xlink="http://www.w3.org/1999/xlink" x="0px" y="0px"
	 viewBox="0 0 242.7 240" style="enable-background:new 0 0 242.7 240;" xml:space="preserve">
<style type="text/css">
	.st0{fill:#2B3B36;}
</style>
<g>
	<g>
		<g>
			<path class="st0" d="M5.5,239.2c11.6-16.7,25.5-31.5,39.9-45.8c15.1-15.1,30.5-29.9,45.9-44.8c31.4-30.3,62.9-60.4,94.3-90.6
				c17.6-16.9,35.1-33.7,52.7-50.6c1.9-1.8-1-4.8-2.9-2.9c-63,60.7-126.6,120.9-188.8,182.5c-15.9,15.7-31.3,32-44,50.6
				C1.5,239.3,4.3,240.9,5.5,239.2L5.5,239.2z"/>
		</g>
	</g>
	<g>
		<g>
			<path class="st0" d="M4.6,4.5c14.7,15.8,30.7,30.7,46.1,45.9C65.8,65.4,81,80.5,96,95.6c30.3,30.4,60.5,60.8,90.7,91.3
				c16.9,17,33.8,34.1,50.7,51.2c1.7,1.7,4.4-0.9,2.7-2.7c-60.3-60.8-120.5-121.8-181.3-182C41.5,36.4,24.7,18.7,6.6,2.6
				C5.2,1.4,3.4,3.2,4.6,4.5L4.6,4.5z"/>
		</g>
	</g>
</g>
</svg>
