<?xml version="1.0" encoding="utf-8"?>
<!-- Generator: Adobe Illustrator 24.2.1, SVG Export Plug-In . SVG Version: 6.00 Build 0)  -->
<svg version="1.1" id="Layer_1" xmlns="http://www.w3.org/2000/svg" xmlns:xlink="http://www.w3.org/1999/xlink" x="0px" y="0px"
	 viewBox="0 0 180.7 183.2" style="enable-background:new 0 0 180.7 183.2;" xml:space="preserve">
<style type="text/css">
	.st0{fill:#F3EDEB;}
</style>
<path class="st0" d="M165.5,157.1c-1.3,4.2-3.5,8-6.3,11.4c-3.1,3.4-7.1,5.9-11.5,7.1c-4.6,1.2-9.4,2-14.2,2.3
	c-5.6,0.5-11.2,0.9-16.9,1.2c-11.3,0.7-22.5,1-33.8,1.1c-11,0.1-22.1,0.1-33.1-0.6c-9.5-0.6-19.1-2.3-26.9-8.2
	c-6.8-5.1-11.7-12.6-14.7-20.4c-3.7-9.5-4.9-19.7-5.1-29.8c-0.3-10.9,0.2-21.9,0.4-32.8s0.2-22.1,0.7-33.1C4.2,50.1,4.8,45,5.9,39.9
	c0.5-2.4,1.2-4.6,2.2-6.8c0.9-1.7,1.8-3.4,2.9-5C19.7,15.2,35.1,9.2,49.8,6.2c8.6-1.6,17.4-2.6,26.1-2.9c11-0.5,21.9-0.4,32.9,0.4
	c10.9,0.7,21.8,2.1,32.6,4.2c4.8,0.8,9.5,2.2,13.9,4.2c4,1.9,7.6,4.8,10.4,8.3c5.4,6.8,7.9,15.5,9.5,24c2,10.8,2.8,21.7,2.5,32.7
	c-0.5,22-4.5,43.8-8.6,65.5C168.3,147.4,167,152.3,165.5,157.1c-0.6,1.8,2.3,2.6,2.9,0.8c1.7-5.1,2.9-10.3,3.8-15.6
	c1.1-5.6,2.1-11.3,3.1-17c2-11.2,3.7-22.5,4.6-33.9c1-11.2,1.1-22.5,0.2-33.7c-0.9-9.9-2.4-20-6.3-29.2c-3.6-8.5-9.3-15.7-17.9-19.6
	c-4.7-2-9.5-3.4-14.5-4.2c-5.5-1-11-1.9-16.6-2.6C113.5,0.8,102,0.1,90.6,0C80.2-0.1,69.7,0.5,59.4,1.7c-15.6,1.9-32.1,6.1-44.1,17
	c-2.9,2.6-5.4,5.6-7.5,8.9c-1.1,1.7-2,3.5-2.9,5.3c-1,2.4-1.7,5-2.1,7.6C0.6,51.2,0.9,62.2,0.7,73.1C0.4,84.6,0.2,96.2,0,107.8
	c-0.2,11-0.2,22.2,2,33c1.7,9,5.5,17.5,11,24.9c5.6,7.4,13.4,12.7,22.4,15c5,1.2,10.2,1.8,15.3,2c5.6,0.3,11.2,0.4,16.8,0.5
	c11.6,0.2,23.2,0,34.8-0.4c11.5-0.4,23-1.1,34.5-2.2c9.6-1,19.2-3.2,25.5-11.1c2.7-3.5,4.7-7.4,6.1-11.6
	C169,156.1,166.1,155.3,165.5,157.1z"/>
<path class="st0" d="M107.3,57.9c-4.7-2.1-9.8-3.1-14.9-3c-4.1,0.2-8.1,0.8-12.1,1.7c-8.8,1.8-17.2,5.5-22.8,12.8
	c-10.6,13.9-10,34.8,0.1,48.7c10,13.8,29.1,19.8,45.3,14.4c15-5,24.5-18.9,26.2-34.2c1.4-14.2-4.7-28.2-16-36.9
	C111.3,60,109.3,58.8,107.3,57.9c-1.8-0.8-3.3,1.8-1.5,2.6c12,5.6,20.3,19.3,20.5,32.5c0.3,13.5-6.4,27.4-18.4,34.1
	c-13.7,7.7-32,5-43.4-5.7c-11.6-10.9-15-29.5-8.3-44c1.9-4.2,4.7-8,8.2-10.9c3.4-2.6,7.2-4.6,11.3-5.8c3.4-1,6.8-1.7,10.3-2.2
	c4.1-0.8,8.4-0.8,12.6-0.2c2.5,0.4,4.9,1.2,7.1,2.2C107.5,61.3,109,58.7,107.3,57.9z"/>
<path class="st0" d="M145.3,33.9c-4.2-2.1-9.2-1.3-12.6,1.8c-3.4,3.3-4.2,8.4-1.9,12.6c2.1,4.3,6.9,6.5,11.5,5.4
	c4.6-1.1,8.4-5.3,8.4-10.1c-0.1-5.7-4.5-10.4-10.2-10.9c-1.9-0.1-1.9,2.9,0,3c3.6,0.4,6.6,3.2,7.1,6.8c0.6,3.5-1.9,6.7-5,7.9
	c-3.2,1.3-6.8,0.2-8.7-2.7c-1.8-2.7-2.2-6.4,0-9c2.4-2.9,6.5-3.8,9.9-2.2C145.6,37.4,147.1,34.8,145.3,33.9L145.3,33.9z"/>
<path class="st0" d="M140.1,40.3c-3,0.8-4.9,3.7-4.4,6.7c0.2,0.8,1.1,1.2,1.9,1c3.5-1.3,4.7-6.3,1.9-8.8c-0.6-0.6-1.5-0.6-2.1,0
	c-1.7,1.5-2.4,3.8-1.8,6c0.1,0.5,0.5,0.9,1,1c4.1,0.8,7.7-3.9,5.6-7.6c-0.4-0.7-1.3-1-2.1-0.5c-1.3,0.9-2.6,2-2.9,3.6
	c-0.3,1.7,0.7,3.3,2.4,3.8l-0.9-2.2c-0.1,0.1-0.2,0.2-0.4,0.2l1.8,1c-0.3-1.1,1.2-2.2,2.3-1.6c1.3,0.8,1.8,2.5,1.1,3.9
	c-0.7,1.6-2.3,2.5-4,2.3c-1.6-0.3-2.9-1.6-3.2-3.2l-2.3,1.3l4.5,2.9c0.6,0.3,1.3,0.2,1.8-0.2c1.4-1.7,1.9-3.9,1.2-6
	c-0.2-0.8-1.1-1.3-1.9-1c-0.3,0.1-0.6,0.3-0.8,0.6c-1,1.6-1.3,3.6-0.7,5.4c0.2,0.6,0.8,1.1,1.4,1.1c3.6,0.2,6.5-3.4,6.3-6.9
	c-0.2-3.8-3.4-6.7-6.8-7.8l-0.4,2.9c2.5,0.1,4.7,1.7,5.6,4c0.2,0.8,1.1,1.3,1.9,1c0.6-0.2,1.1-0.8,1.1-1.4c0.1-2.5-1.4-4.7-3.7-5.5
	c-0.8-0.2-1.6,0.3-1.8,1.1c0,0.1-0.1,0.3-0.1,0.4l0.2,4.7l2.9-0.4c-0.7-3.5-3.4-6.3-6.9-7.3c-0.8-0.2-1.6,0.3-1.9,1
	c-0.3,2,0.6,3.4,1.8,4.9c0.5,0.5,0.9,1.1,1.3,1.8c0.2,0.2,0.2,0.5,0.3,0.8c0,0.2,0,0.4-0.1,0.5c-0.2,0.4-0.6,0.8-1.1,0.9
	c-0.2,0-0.4,0-0.6,0c-0.1,0-0.1,0-0.2-0.1c0.1,0.1-0.3-0.4-0.1-0.1c-0.2-0.2-0.3-0.5-0.3-0.8c0,0.3,0-0.1,0-0.2s0-0.2,0-0.3
	c0,0.1,0,0.1,0-0.1c0-0.5,0.4-0.9,0.9-1l-2-0.5c0.7,1.8-0.2,3.7-1.9,4.4c-0.1,0-0.1,0-0.2,0.1l1.8,1c-0.5-1.4-0.4-2.9,0.4-4.1
	l-2.8-0.8l0.2,3.7l1.5-1.5c-0.2-0.1-0.3-0.1-0.4-0.2c-0.1-0.1-0.2-0.3-0.3-0.4c-0.3-0.5-0.4-1.1-0.3-1.6c0.2-0.8,0.5-1.5,0.9-2.2
	c0.3-0.6,0.7-1.2,1.2-1.7c0.1-0.1,0.2-0.2,0.4-0.2c0,0-0.1,0-0.1,0s-0.1,0.2-0.1,0.1c0,0.3,0,0.6,0.1,0.9c0,0.4,0,0.9,0,1.3
	c0,0.6-0.2,1.1-0.5,1.6c-0.1,0.1-0.3,0.3-0.5,0.3c-0.1,0.1-0.3,0.1-0.4,0c0.1,0-0.1-0.1-0.1-0.2c-0.1-0.2-0.1-0.5,0-0.7
	c0.1-0.5,0.3-1,0.7-1.4c0.6-0.9,1.8-1.4,2.9-1c0.4,0.2,0.8,0.6,0.9,1c0.1,0.2,0.1,0.3,0,0.5c-0.1,0.3,0,0.1,0,0.1
	c-0.1,0.1-0.1,0.2,0,0.1l-0.2,0.2c0.2-0.1-0.5,0.2-0.3,0.2c-0.1,0-0.2,0.1-0.3,0.1c0.2,0-0.1,0-0.1,0s-0.4,0-0.1,0
	c-0.4-0.1,0.1,0.1-0.1,0s0.2,0.2-0.1-0.1c0.1,0.1-0.1-0.2,0,0c-0.1-0.4-0.1,0.1,0-0.2c0,0.2,0.1-0.2,0.1-0.2
	c-0.1,0.2,0.1-0.1,0.1-0.2c0.1-0.1,0.1-0.2,0.2-0.3c0.3-0.3,0.7-0.5,1.1-0.5c1.3,0.2,2.2,1.7,2.6,2.8l2.5-1.5l-3.2-2.8
	c-0.6-0.6-1.6-0.6-2.2,0c-0.1,0.1-0.1,0.2-0.2,0.3c-1.6,2.9-0.5,6.4,2.4,8c0.2,0.1,0.5,0.2,0.7,0.3c0.5,0.1,1.1,0,1.5-0.4
	c2.1-2.1,2-5.5-0.1-7.6c-0.2-0.2-0.5-0.4-0.7-0.6c-0.7-0.4-1.6-0.2-2.1,0.6c-0.1,0.1-0.1,0.2-0.1,0.3c-0.6,2-1.2,4.2-0.2,6.2
	c0.8,1.6,2.4,2.5,4.2,2.4c1.9-0.3,3.2-1.9,3.1-3.7c0-1.5-0.6-3-0.3-4.4c0.2-0.8-0.3-1.6-1.1-1.9c-0.1,0-0.2,0-0.3,0
	c-4.3-0.3-7.5,5.3-5.1,8.8c0.4,0.7,1.4,0.9,2.1,0.5c0.3-0.2,0.5-0.5,0.6-0.8c1-2.8,0.4-6-1.6-8.2c-0.5-0.5-1.2-0.6-1.8-0.2
	c-3,2.1-4.1,6-2.5,9.4c0.4,0.7,1.3,0.9,2,0.5c2.2-1.4,2.9-4.4,1.4-6.6c-0.1-0.2-0.2-0.3-0.3-0.4c-0.6-0.6-1.5-0.6-2.1,0
	c-0.6,0.6-0.6,1.5,0,2.1c0.2,0.3,0.3,0.7,0.2,1.1c-0.1,0.5-0.3,0.9-0.7,1.2l2,0.5c-0.8-1.9-0.2-4,1.5-5.3l-1.8-0.2
	c1.3,1.4,1.6,3.5,0.8,5.3l2.7-0.4c-0.2-0.2-0.3-0.4-0.3-0.7c-0.1-0.2-0.1-0.5-0.1-0.7c0-0.5,0.2-1,0.4-1.5c0.2-0.4,0.6-0.8,1-1.1
	c0.2-0.1,0.4-0.2,0.6-0.3c0.3-0.1,0.5-0.1,0.8-0.1l-1.5-1.9c-0.2,1.3-0.2,2.6,0.1,3.9c0.1,0.5,0.1,1,0.1,1.5c0-0.1-0.1,0.4-0.1,0.4
	c0,0.1-0.1,0.1-0.2,0.2c0,0-0.2,0.1-0.1,0s0,0-0.1,0c-0.1,0-0.3,0-0.4-0.1c-0.3-0.2-0.6-0.4-0.8-0.8c-0.5-1.1,0-2.8,0.4-4l-2.2,0.9
	c1,0.8,1.2,2.3,0.3,3.3c0,0.1-0.1,0.1-0.2,0.2l1.5-0.4c-0.7-0.3-1.2-0.9-1.5-1.6c-0.3-0.7-0.3-1.6,0.1-2.3l-2.4,0.3l3.2,2.8
	c0.5,0.5,1.2,0.6,1.8,0.2c0.6-0.3,0.9-1,0.7-1.7c-0.8-2.4-2.6-4.8-5.4-5c-2.5-0.1-4.5,1.8-4.6,4.3c0,0,0,0,0,0
	c0.1,2.7,2.9,3.8,5.1,2.8c1.9-0.9,2.8-3.2,1.9-5.2c-0.2-0.3-0.3-0.6-0.6-0.9c-1.7-2.1-4.9-2.4-7-0.7c-1.9,1.5-3.4,4.4-2,6.7
	c1.5,2.6,5.2,1.8,6.4-0.7c0.6-1.3,0.8-2.7,0.6-4.1c-0.1-1.4-0.4-2.9-1.7-3.6c-3.1-1.6-5.5,2.9-6.3,5.3c-1,2.9,0.4,6.4,3.7,6.8
	c0.8,0,1.5-0.7,1.5-1.5l-0.2-3.7c0-0.8-0.7-1.5-1.6-1.5c-0.5,0-1,0.3-1.2,0.7c-1.1,2-1.4,4.3-0.7,6.5c0.2,0.8,1,1.2,1.8,1
	c3.4-1.1,5.3-4.7,4.2-8.1c-0.1-0.3-0.2-0.5-0.3-0.8c-0.4-0.7-1.3-0.9-2-0.5c-3.5,1.5-3,7.5,0.8,8.1c2.4,0.5,4.8-1.1,5.2-3.5
	c0.3-1.4-0.1-2.8-1.1-3.9c-0.5-0.7-1.2-1.5-1.6-2c-0.1-0.2-0.3-0.4-0.4-0.5s-0.3-0.5-0.2-0.3c-0.1-0.2-0.1-0.3-0.1-0.5
	c0,0.1,0-0.3,0-0.2l-1.9,1c2.4,0.7,4.3,2.7,4.8,5.1c0.3,1.7,3,1.3,3-0.4l-0.2-4.7l-1.9,1.4c1,0.4,1.7,1.5,1.5,2.6l3-0.4
	c-1.3-3.6-4.7-6.1-8.5-6.3c-1.8-0.1-2,2.4-0.4,3c2.1,0.7,4.4,2.5,4.6,4.9c0.2,1.9-1.4,4-3.3,3.9l1.5,1.1c-0.4-1-0.2-2.2,0.4-3.1
	l-2.7-0.4c0.4,1,0.3,2.2-0.4,3.1l1.8-0.2l-4.5-2.9c-0.7-0.4-1.6-0.2-2.1,0.6c-0.1,0.2-0.2,0.5-0.2,0.7c0.2,2.5,1.8,4.6,4,5.6
	c2.3,1,5.1,0.7,7-1c1.9-1.5,2.8-4,2.3-6.4c-0.4-2.4-2.5-4.2-4.9-4.4c-2.8,0-5.4,2.8-4.5,5.6c0.2,0.8,1,1.2,1.8,1
	c0.9-0.3,1.7-0.8,2.2-1.6c0.4-0.7,0.2-1.6-0.5-2.1c-0.1-0.1-0.2-0.1-0.4-0.1c-0.2,0-0.3-0.2-0.2-0.5c0.2-0.6,0.9-1,1.4-1.4l-2-0.5
	c0.1,0.2,0.2,0.4,0.2,0.6c0-0.2,0,0.5,0,0.4c-0.1,0.5-0.2,0.9-0.5,1.3c-0.2,0.3-0.6,0.6-0.9,0.8c-0.3,0.2-0.7,0.2-1,0.1l1,1
	c-0.3-1.1,0.1-2.3,1-3.1h-2.1c0.3,0.2,0.5,0.6,0.6,0.9c0.1,0.2,0.1,0.4,0.1,0.5c0,0.1,0,0.3,0,0.4s0,0.4,0,0.2
	c0,0.3-0.1,0.5-0.2,0.8c0.1-0.1,0,0,0,0.1c-0.1,0.1-0.1,0.2-0.2,0.3c-0.1,0.1-0.3,0.3-0.4,0.4c-0.1,0.1,0,0-0.1,0.1
	c0,0-0.4,0.2-0.2,0.1l1.9,1c0-1.4,0.9-2.7,2.3-3C142.9,42.6,142.1,39.7,140.1,40.3L140.1,40.3z"/>
<path class="st0" d="M134.2,42.6c0.3,0.1,0.6,0.3,0.9,0.5l-0.3-0.2c0.3,0.2,0.6,0.5,0.9,0.9l-0.2-0.3c0.2,0.3,0.4,0.6,0.6,1
	l-0.2-0.4c0.2,0.4,0.3,0.8,0.3,1.1v-0.4v0.1l2.9-0.4l-0.1-0.6l0.1,0.4c-0.1-0.7-0.1-1.4,0-2.1l0,0.4c0.1-0.6,0.2-1.2,0.4-1.8
	c0.1-0.4,0.1-0.8-0.1-1.1c-0.2-0.3-0.5-0.6-0.9-0.7c-0.4-0.1-0.8-0.1-1.1,0.1c-0.3,0.2-0.6,0.5-0.7,0.9c-0.6,1.7-0.7,3.6-0.3,5.4
	c0.2,0.7,0.9,1.2,1.6,1.1c0.3,0,0.6-0.2,0.9-0.4c0.3-0.3,0.4-0.7,0.4-1.1c-0.1-1-0.5-2-1-2.9c-0.6-0.9-1.4-1.6-2.3-2
	c-0.4-0.2-0.8-0.2-1.1-0.1c-0.8,0.2-1.3,1-1,1.8C133.7,42,133.9,42.4,134.2,42.6L134.2,42.6z"/>
<path class="st0" d="M142.4,42.3c0.1,0.5,0.2,1,0.3,1.5l0-0.4c0,0.3,0.1,0.5,0.1,0.8h3c0-0.2,0-0.3,0-0.5v0.4c0-0.2,0.1-0.4,0.1-0.5
	l-0.2,0.4c0.1-0.1,0.1-0.3,0.2-0.4l-0.2,0.3c0.1-0.1,0.2-0.2,0.3-0.3h-2.2l0.3,0.3l-0.2-0.3c0.2,0.3,0.4,0.5,0.5,0.8l-0.1-0.4
	c0.1,0.3,0.2,0.6,0.3,0.9l0-0.4c0,0.3,0,0.7,0,1l0.1-0.4c0,0.1,0,0.2-0.1,0.3l0.1-0.4c0,0-0.1,0.1-0.1,0.1l0.2-0.3
	c0,0,0,0.1-0.1,0.1l0.3-0.2h-0.1l0.4-0.1h-0.1l0.4,0h-0.1l0.4,0.1h-0.1l0.4,0.2l-0.1-0.1l0.3,0.2l-0.1-0.1l0.2,0.3
	c-0.1-0.1-0.1-0.2-0.2-0.3l0.1,0.4c0-0.1-0.1-0.2-0.1-0.4v0.4c-0.1-0.5-0.1-1,0-1.5l0,0.4c0.1-0.5,0.2-1,0.4-1.5l-2.5,0.7l0.1,0.1
	L144,43c0.1,0.2,0.3,0.4,0.4,0.6l-0.1-0.4c0.1,0.3,0.2,0.5,0.2,0.8l0-0.4c0,0.3,0,0.5,0,0.8l0.1-0.4c0,0.1,0,0.3-0.1,0.4h2.9v-0.2
	l0,0.4c0-0.3,0-0.5,0-0.8l-0.1,0.4c0-0.3,0.1-0.5,0.2-0.8l-0.1,0.4c0.1-0.2,0.2-0.4,0.4-0.6l-0.2,0.3v0l-2.5-0.7l0.1,0.4l0-0.4
	c0.1,0.7,0.1,1.4,0,2l0-0.4c0,0.2-0.1,0.5-0.1,0.7c-0.1,0.4,0,0.8,0.1,1.2c0.4,0.7,1.3,1,2.1,0.5c0.3-0.2,0.6-0.5,0.7-0.9
	c0.4-1.1,0.4-2.3,0.2-3.4c-0.2-0.8-1-1.3-1.8-1c-0.4,0.1-0.7,0.4-0.9,0.7l-0.1,0.4c-0.1,0.3-0.1,0.5,0,0.8v0.1l-0.1-0.4
	c0,0.2,0,0.4,0,0.5l0-0.4c0,0.2-0.1,0.4-0.2,0.6l0.1-0.4c-0.1,0.2-0.2,0.4-0.3,0.5l0.2-0.3c-0.1,0.2-0.3,0.3-0.4,0.4l0.3-0.2
	c-0.1,0.1-0.3,0.2-0.5,0.3l0.4-0.1c-0.1,0.1-0.2,0.1-0.4,0.1c-0.8,0.2-1.3,1-1,1.8c0.3,0.8,1.1,1.2,1.9,1c0.9-0.2,1.7-0.8,2.2-1.6
	c0.2-0.3,0.4-0.7,0.5-1.1c0.1-0.5,0.1-1.1,0-1.6l-2.9,0.8l0.1,0.4l0-0.4c0.1,0.4,0.1,0.9,0,1.3l0.1-0.4c0,0.3-0.1,0.6-0.2,0.9
	l2.9,0.8c0.3-1.3,0.3-2.6,0-3.9c-0.1-0.5-0.5-0.9-1-1c-0.5-0.2-1.1,0-1.5,0.4c-0.9,1.1-1.3,2.5-1,3.9c0.1,0.3,0.3,0.6,0.5,0.8
	c0.3,0.2,0.6,0.3,0.9,0.3c0.7,0,1.3-0.5,1.5-1.1c0.2-0.7,0.2-1.5,0-2.3c-0.2-0.7-0.5-1.4-1-2c-0.4-0.4-0.9-0.5-1.5-0.4
	c-0.5,0.1-0.9,0.5-1,1c-0.3,0.8-0.4,1.6-0.5,2.4c-0.1,0.8,0,1.7,0.4,2.4c0.4,0.6,1,1,1.7,1c0.7,0,1.3-0.4,1.7-1
	c0.4-0.9,0.4-1.8,0.1-2.7c-0.2-0.9-0.7-1.7-1.3-2.4c-0.3-0.3-0.7-0.4-1.1-0.4c-0.4,0-0.8,0.2-1.1,0.4c-0.4,0.4-0.7,0.9-0.9,1.4
	c-0.2,0.4-0.2,0.9-0.2,1.4c0,0.4,0.2,0.8,0.4,1.1c0.3,0.3,0.7,0.4,1.1,0.4c0.8,0,1.5-0.7,1.5-1.5c0-0.9-0.2-1.8-0.5-2.7
	c-0.1-0.4-0.4-0.7-0.7-0.9c-0.7-0.4-1.6-0.2-2,0.5c-0.2,0.3-0.3,0.8-0.2,1.1L142.4,42.3z"/>
</svg>
