<svg id="Layer_1" data-name="Layer 1" xmlns="http://www.w3.org/2000/svg" viewBox="0 0 180.95 183.35">
  <defs>
    <style>
      .cls-1 {
        fill: #2b3b36;
      }
    </style>
  </defs>
  <title>Instagram logo cropped artboard</title>
  <g>
    <path class="cls-1" d="M372.79,486.41c-3.74,10.23-10.29,17.07-21.18,19.39-10.3,2.19-21.32,2.28-31.81,2.83-20.93,1.1-42.13,1.6-63.07.29-10.44-.65-20.59-2.85-28.65-9.93-6.58-5.78-11.14-13.77-13.83-22-6.42-19.78-3.89-42-3.5-62.47.19-10.17.16-20.38.69-30.54.51-9.95,1.79-19.84,7.91-28,9.33-12.46,24.87-18.08,39.65-20.8,19.28-3.55,39.57-3.46,59.05-2a258.61,258.61,0,0,1,31.6,4.2c9.85,2,18.87,5.58,24.71,14.2,5.73,8.47,7.89,19,9.26,28.94a176.65,176.65,0,0,1,.91,36A352.39,352.39,0,0,1,380,452.35c-1.95,11.35-3.5,23.11-7.16,34.06-.61,1.84,2.29,2.63,2.89.8,3.66-11,5.22-22.71,7.16-34.06s3.58-22.48,4.48-33.82c1.63-20.52,1.82-44.31-7.08-63.4-3.73-8-9.59-14.45-17.8-18-9-3.86-19.32-5-29-6.23-22.48-2.92-45.74-3.55-68.25-.58-15.63,2.06-32.21,6.58-43.8,17.89-14.53,14.17-13.08,34.82-13.44,53.62-.24,12.36-.54,24.72-.7,37.08-.14,10.86.06,21.84,2.55,32.46,4.1,17.54,15.36,33.48,33.56,37.91,12,2.91,24.92,2.35,37.13,2.43q20.64.13,41.25-1c11.47-.63,24.38-.3,35.36-4.12,9.62-3.35,15.16-10.91,18.55-20.19C376.35,485.4,373.45,484.61,372.79,486.41Z" transform="translate(-207.24 -329.21)"/>
    <path class="cls-1" d="M314.6,387.18c-15.23-6.44-38.72-2.41-49.33,10.94-10.73,13.51-10.6,34-1.11,48.14s27.75,20.51,44,16.2c15.53-4.14,26-18,28.1-33.56,2.28-16.61-6.46-34.24-21.63-41.72-1.72-.85-3.25,1.73-1.51,2.59,25.25,12.46,27.55,51.15,3.18,66-13.69,8.33-32.32,5.89-44.08-4.73-11.58-10.44-15.08-28.35-9.38-42.69,3.86-9.7,11.73-16.1,21.72-18.74,9.44-2.5,19.33-3.74,28.56.17C314.84,390.51,316.38,387.93,314.6,387.18Z" transform="translate(-207.24 -329.21)"/>
    <path class="cls-1" d="M352.64,363.18c-5.39-2.55-12.51-.64-15,5.08A11.1,11.1,0,0,0,344,382.71c5.7,1.94,12.41-1.87,13.81-7.7,1.55-6.46-3.72-12.35-9.94-13-1.92-.2-1.9,2.8,0,3,4.45.47,8.29,5.13,7,9.65-1.23,4.12-6.25,6.72-10.25,5.05a8,8,0,0,1-4.21-10.09c1.71-4.09,6.91-5.68,10.8-3.84,1.73.83,3.26-1.76,1.51-2.59Z" transform="translate(-207.24 -329.21)"/>
    <path class="cls-1" d="M347.46,369.57a6.05,6.05,0,0,0-4.45,6.32,1.53,1.53,0,0,0,2.26,1.3,5.45,5.45,0,0,0,1.49-8.69,1.51,1.51,0,0,0-2.12,0,6.35,6.35,0,0,0-1.79,6,1.51,1.51,0,0,0,1.45,1.1c4.18.47,6.82-4,5.21-7.62a1.52,1.52,0,0,0-2.06-.54c-2.62,1.95-4.48,5.78-.45,7.35l-.66-2.51-1,.66,2.2.89q.74-2.83,2.92-1.21a3.25,3.25,0,0,1,.85,2.11,3.74,3.74,0,0,1-1.78,3.07c-2.57,1.59-5.28-.31-5.76-3.05l-2.21,1.69,4.55,2.92a1.52,1.52,0,0,0,2.05-.54,6.34,6.34,0,0,0,.94-5.73,1.52,1.52,0,0,0-2.74-.36,7.07,7.07,0,0,0-.67,5.42,1.51,1.51,0,0,0,1.44,1.1,6.53,6.53,0,0,0,6.31-6.6c0-4-3.41-6.79-6.85-8.07l-.4,2.94a6.65,6.65,0,0,1,5.64,4.05c.61,1.46,2.93,1.44,2.94-.39a5.57,5.57,0,0,0-3.35-5.35,1.52,1.52,0,0,0-2.26,1.3l.23,4.72,2.94-.39a9.75,9.75,0,0,0-6.86-7.25,1.52,1.52,0,0,0-1.9,1.45,5.69,5.69,0,0,0,1.51,4c.52.69,1.55,1.51,1.72,2.39.63,3.23-4.24,1-1.41-.57l-2.2-.89a3.5,3.5,0,0,1-1.93,4.84l1.84,1.05a5.18,5.18,0,0,1,.36-4.13l-2.79-.76.17,3.73,1.9-1.45c-1.22-.29-1.48-2.17-1.18-3.12a6.93,6.93,0,0,1,1-2.09c.49-.6.42-.91,1.08-.57.38.2.48,2.59-.72,2.42s-.28-1,.43-1.57a1.29,1.29,0,0,1,1.43-.42c1-.39,1.27-.18.81.62s-.17,1,.83.4c.58-.47,1.06-.46,1.45,0a4.43,4.43,0,0,1,1.55,2.27l2.5-1.46-3.21-2.78a1.52,1.52,0,0,0-2.36.3,5.94,5.94,0,0,0,2.73,8.18,1.55,1.55,0,0,0,1.82-.23,5.4,5.4,0,0,0-.5-8,1.52,1.52,0,0,0-2.5.66c-1,3.14-1.1,8.51,3.53,8.62,4.87.12,2.85-5.43,3.3-8.14a1.53,1.53,0,0,0-1.44-1.9,5.93,5.93,0,0,0-5.06,8.83,1.52,1.52,0,0,0,2.74-.36,8.3,8.3,0,0,0-1.59-8.18,1.48,1.48,0,0,0-1.81-.23,7.52,7.52,0,0,0-2.68,9c.32.79,1.34,1.54,2.2.9a4.82,4.82,0,0,0,1.36-6.72c-1.06-1.61-3.65-.11-2.59,1.52a1.74,1.74,0,0,1-.28,2.61l2.2.89a4.56,4.56,0,0,1,1.3-5.61l-1.82-.23a5.23,5.23,0,0,1,.82,5.25l2.74-.35a2.9,2.9,0,0,1,2.47-4.32l-1.45-1.89a11,11,0,0,0,0,3.34c0,.35.6,3.28-1.15,2.17-1-.61-.15-3.58.1-4.4l-2.51.66a2.42,2.42,0,0,1,.5,3.71l1.82-.23a3,3,0,0,1-1.66-4.07l-2.36.3,3.22,2.78c1,.88,3.1.07,2.51-1.46-.95-2.46-2.84-5.13-5.81-5a4.4,4.4,0,0,0-4.18,4.62c.71,5.55,10.12,2,6.62-3.28-3.37-5.06-11.85.17-9.43,5.41,1.13,2.44,4.26,2.39,5.92.53s2.07-6.42.11-8.15c-4.41-3.9-11.64,9.67-3.64,11.59a1.51,1.51,0,0,0,1.9-1.44l-.17-3.73c-.07-1.39-2.09-2.16-2.8-.76a8.43,8.43,0,0,0-.66,6.45,1.52,1.52,0,0,0,1.84,1.05,6.48,6.48,0,0,0,4-8.54,1.53,1.53,0,0,0-2.2-.9c-4.1,2.32-2.28,9.37,2.74,8a4.43,4.43,0,0,0,3.38-4.49c-.22-2.65-3.61-4.31-3.43-6.81l-1.9,1.44a6.75,6.75,0,0,1,4.77,5.15,1.51,1.51,0,0,0,3-.4l-.23-4.72-2.25,1.29a2.93,2.93,0,0,1,1.86,2.76l2.95-.4a9.81,9.81,0,0,0-8.53-6.26c-1.8-.15-1.88,2.4-.4,2.95,1.9.7,3.89,2,4.47,4.11a3.58,3.58,0,0,1-3.13,4.67l1.45,1.1a3.39,3.39,0,0,1,.37-3.11l-2.74-.36a3.71,3.71,0,0,1-.64,3.43l2.05-.54-4.54-2.92c-1.2-.76-2.42.5-2.2,1.7,1.3,7.44,12.59,7.69,13.38-.12.29-2.83-1.52-6-4.5-6.37a4.66,4.66,0,0,0-5.11,5.57,1.52,1.52,0,0,0,2.2.9,3.67,3.67,0,0,0,1.59-1.12,1.52,1.52,0,0,0-.66-2.51A1.66,1.66,0,0,1,349,370l-2.05-.53c.81,1.81-1,3.29-2.62,3.1l1.44,1.11a3,3,0,0,1,1-3.08h-2.12a2.47,2.47,0,0,1-.89,4l2.26,1.29a3.09,3.09,0,0,1,2.24-3.43c1.84-.57,1.06-3.47-.79-2.89Z" transform="translate(-207.24 -329.21)"/>
    <path class="cls-1" d="M341.56,371.88a3.24,3.24,0,0,1,1.91,2.65l2.89-.8a6.93,6.93,0,0,1,.32-3.77c.65-1.82-2.25-2.6-2.89-.79a9.87,9.87,0,0,0-.32,5.36,1.5,1.5,0,0,0,2.89-.8,6,6,0,0,0-3.29-4.44c-1.73-.83-3.25,1.75-1.51,2.59Z" transform="translate(-207.24 -329.21)"/>
    <path class="cls-1" d="M349.75,371.59a8.64,8.64,0,0,1,.34,1.88h3c0-.34,0-.44.23-.68H351.2a2.25,2.25,0,0,1,.47.82,3,3,0,0,1,.09.32c0,.12,0,.24,0,.37s0,.17.14-.14l.66-.39-.17,0h.87l.54.54c-.45-.58.05-1.95.25-2.56l-2.51.67a1.54,1.54,0,0,1,.26,1.28h2.89a1.6,1.6,0,0,1,.42-1.23l-2.74-.36a6.41,6.41,0,0,1-.05,2.31,1.5,1.5,0,0,0,2.89.8,6.92,6.92,0,0,0,.16-3.38c-.3-1.65-3.14-1.29-2.94.4.06.52-.08.94-.62,1.09a1.5,1.5,0,0,0,.8,2.89,3.82,3.82,0,0,0,2.82-4l-2.95.39a3.74,3.74,0,0,1-.16,1.79l2.89.8a10.49,10.49,0,0,0,0-3.91c-.23-1.41-2.07-1.27-2.74-.36a4.56,4.56,0,0,0-.72,3.55c.24,1.47,2.58,1.38,2.89,0a4.79,4.79,0,0,0-1-4.21c-.76-.94-2.19-.29-2.51.67a8.34,8.34,0,0,0-.44,3.57c.15,1.2,1.13,2.44,2.47,2.12,2.78-.66,1.36-4.64.12-6a1.52,1.52,0,0,0-2.12,0,3.57,3.57,0,0,0-1.11,2.8c.14,1.91,3.11,1.94,3,0a11.65,11.65,0,0,0-.45-2.68c-.55-1.84-3.45-1.05-2.89.8Z" transform="translate(-207.24 -329.21)"/>
  </g>
</svg>
