<svg xmlns="http://www.w3.org/2000/svg" width="20" height="19.955" viewBox="0 0 20 19.955"><defs><style>.a{fill:#875548;}</style></defs><g transform="translate(-178.592 -302.176)"><g transform="translate(178.592 303.887)"><g transform="translate(0)"><path class="a" d="M178.832,322.075a26.521,26.521,0,0,1,3.091-3.541c1.172-1.167,2.366-2.314,3.556-3.462q3.644-3.513,7.307-7.006l4.084-3.911c.148-.141-.077-.366-.225-.224-4.882,4.694-9.805,9.349-14.626,14.106a26.779,26.779,0,0,0-3.405,3.91c-.092.135.125.259.218.128Z" transform="translate(-178.592 -303.887)"/></g></g><g transform="translate(180.393 302.176)"><path class="a" d="M180.424,302.361c1.14,1.247,2.362,2.42,3.546,3.622q1.75,1.779,3.492,3.569,3.5,3.6,6.984,7.209l3.9,4.039c.131.136.335-.074.2-.209-4.642-4.8-9.27-9.613-13.957-14.367-1.328-1.347-2.631-2.736-4.019-4.017a.108.108,0,0,0-.151.154Z" transform="translate(-180.393 -302.176)"/></g></g></svg>