<?xml version="1.0" encoding="utf-8"?>
<!-- Generator: Adobe Illustrator 24.2.1, SVG Export Plug-In . SVG Version: 6.00 Build 0)  -->
<svg version="1.1" id="Layer_2_1_" xmlns="http://www.w3.org/2000/svg" xmlns:xlink="http://www.w3.org/1999/xlink" x="0px" y="0px"
	 viewBox="0 0 259.4 217.2" style="enable-background:new 0 0 259.4 217.2;" xml:space="preserve">
<style type="text/css">
	.st0{fill:#F3EDEB;}
</style>
<path class="st0" d="M71.8,215.9c10.8,1.5,21.8,1.7,32.6,0.4c8.7-1.1,17.3-3.2,25.5-6.2c16.8-6.1,32.1-15.7,45.6-27.2
	c13.8-11.9,25.9-25.5,36-40.6c11.3-16.6,21.4-35.5,22.5-55.9c0.2-4.9-0.3-9.6-0.7-14.4c-0.3-4.3-0.4-9.1,2.3-12.7
	c1.5-2,3.8-3.3,5.9-4.8c5.8-4,10.8-9.1,14.5-15.1c1.2-2,2.3-4.1,3.3-6.2c0.5-1.1-0.3-2.6-1.7-2.2c-9.6,3.2-19.5,5.7-29.4,7.7
	l1.1,2.7c11.3-7.3,19.7-18.4,23.6-31.3c0.2-0.8-0.3-1.6-1.1-1.8c-0.4-0.1-0.7,0-1.1,0.1l-20.4,8.9c-1.6,0.7-3.3,1.5-4.9,2.2
	c-1.5,0.6-3,1.3-4.7,1c-2.7-0.5-4.9-3.1-7.1-4.7C204.4,9.4,193.5,5.7,182.2,5c-11.2-0.8-22.3,1.8-32,7.3
	c-14.5,8.7-24.3,23.3-26.9,40c-0.4,2.9-0.6,5.9-0.6,8.9c0.1,3,0.1,6.7,1.6,9.4l2-2c-7.2-3-15-3.5-22.6-4.8
	c-8.1-1.4-15.4-4.7-22.6-8.4c-13.9-7.1-27.9-14.3-41-22.9c-7.5-4.8-14.5-10.2-21.1-16.1c-0.6-0.6-1.6-0.6-2.1,0
	c-0.2,0.2-0.3,0.4-0.4,0.6C9,35.1,11.5,56.6,22,72.9c3,4.7,6.6,8.9,10.8,12.5l1.5-2.5c-7.5-1.3-14.8-3.5-21.7-6.6
	c-0.7-0.4-1.7-0.2-2.1,0.6c-0.1,0.1-0.1,0.2-0.1,0.3c-2.7,9.9-0.9,20.4,4,29.3c4.9,9.1,13,16.1,22,20.9c5.2,2.7,10.6,4.9,16.2,6.4
	l0.4-3H30.8c-0.8,0-1.5,0.7-1.5,1.5c0,0.1,0,0.3,0.1,0.4c5.3,15.7,18.4,28.2,34,33.5c4.5,1.5,9.1,2.4,13.8,2.6l-0.8-2.8
	C60,178.6,40,185.8,19.3,186.6c-5.8,0.2-11.6-0.1-17.3-0.9c-1.1-0.2-2.5,1-1.7,2.2c5.3,7.7,13.2,12.6,21.7,16
	c9.6,3.9,19.8,6.2,29.8,8.4C58.4,213.9,65,215.1,71.8,215.9c0.7,0.2,1.4-0.7,1.4-1.4c0-0.8-0.7-1.5-1.5-1.5
	c-11.4-1.7-22.6-4-33.7-7.1c-8.5-2.2-17-4.9-24.5-9.5c-4.2-2.6-7.8-6-10.7-10l-1.7,2.2c21.2,3,42.7-0.7,61.7-10.5
	c5.3-2.7,10.4-6,15.1-9.6c0.7-0.5,0.9-1.4,0.5-2.1c-0.3-0.4-0.7-0.7-1.2-0.7c-15.5-0.7-30.3-9.4-39.1-22.1
	c-2.5-3.6-4.5-7.6-5.9-11.7l-1.4,1.9H53c0.8,0,1.5-0.7,1.5-1.5c0-0.7-0.4-1.2-1.1-1.4c-18.4-5.1-36.4-17.2-40.6-37
	c-1.2-5.3-1-10.8,0.4-16l-2.2,0.9c7.1,3.3,14.6,5.6,22.4,6.9c1.3,0.2,2.7-1.4,1.5-2.5C20.7,70.9,13.6,51.5,15.5,33
	c0.6-5.2,1.9-10.4,3.9-15.3l-2.5,0.7c11.7,10.6,25,19.1,38.8,26.8c6.9,3.8,13.9,7.5,21,11.1s14.4,7.5,22.2,9.4
	c8.6,2.1,17.8,1.8,26.1,5.3c1.3,0.5,2.9-0.6,2.1-2.1c-1.2-2.2-1.1-5.4-1.2-7.9c-0.1-2.6,0.1-5.1,0.4-7.7c0.7-5.1,2.2-10.1,4.4-14.9
	C134.9,29,142,21,150.8,15.4c18.7-11.5,43.9-9.5,61.5,3.1c2.4,1.7,4.7,4.2,7.6,4.9c3.5,0.8,6.9-1.3,10-2.6l22.2-9.7L250,9.4
	c-3.7,12.2-11.5,22.6-22.2,29.5c-0.7,0.4-0.9,1.4-0.5,2.1c0.3,0.6,1,0.8,1.6,0.7c10-1.9,19.8-4.5,29.5-7.7l-1.7-2.2
	c-3.9,8.6-10.2,16-18.1,21.2c-2.1,1.2-3.9,2.8-5.4,4.7c-1.2,1.7-2.1,3.7-2.5,5.8c-0.9,4.4-0.3,8.8,0.1,13.2c0.9,10-0.4,20-3.6,29.5
	c-3.4,9.8-8,19.1-13.6,27.7c-9.6,15.4-21.1,29.4-34.3,41.8c-12.9,12-27.7,22.3-44,29.2c-17.3,7.4-36.2,10.4-55,8.9
	c-2.8-0.2-5.6-0.5-8.5-0.9c-0.8-0.1-1.5,0.8-1.5,1.5C70.3,215.2,70.9,215.9,71.8,215.9z"/>
</svg>
